<svg width="48" height="48" viewBox="0 0 48 48" fill="none" xmlns="http://www.w3.org/2000/svg">
<rect width="48" height="48" rx="24" fill="#F3F2EE"/>
<path d="M33.75 33.5H14.25C13.7859 33.5 13.3408 33.3156 13.0126 32.9874C12.6844 32.6592 12.5 32.2141 12.5 31.75V16.25C12.5 15.284 13.284 14.5 14.25 14.5H33.75C34.716 14.5 35.5 15.284 35.5 16.25V31.75C35.5 32.2141 35.3156 32.6592 34.9874 32.9874C34.6592 33.3156 34.2141 33.5 33.75 33.5ZM14.25 16C14.1837 16 14.1201 16.0263 14.0732 16.0732C14.0263 16.1201 14 16.1837 14 16.25V31.75C14 31.888 14.112 32 14.25 32H17.428L26 22.977C26.1608 22.8076 26.3539 22.6721 26.568 22.5785C26.782 22.4849 27.0127 22.4352 27.2462 22.4322C27.4798 22.4292 27.7117 22.473 27.928 22.5611C28.1444 22.6492 28.3409 22.7797 28.506 22.945L34 28.44V16.25C34 16.1837 33.9737 16.1201 33.9268 16.0732C33.8799 16.0263 33.8163 16 33.75 16H14.25ZM34 31.75V30.56L27.445 24.006C27.4215 23.9823 27.3934 23.9637 27.3624 23.9511C27.3315 23.9386 27.2984 23.9324 27.265 23.933C27.2317 23.9332 27.1987 23.9401 27.1681 23.9533C27.1375 23.9665 27.1099 23.9858 27.087 24.01L19.497 32H33.75C33.8163 32 33.8799 31.9737 33.9268 31.9268C33.9737 31.8799 34 31.8163 34 31.75ZM22.5 21.25C22.5 22.112 22.1576 22.9386 21.5481 23.5481C20.9386 24.1576 20.112 24.5 19.25 24.5C18.388 24.5 17.5614 24.1576 16.9519 23.5481C16.3424 22.9386 16 22.112 16 21.25C16 20.388 16.3424 19.5614 16.9519 18.9519C17.5614 18.3424 18.388 18 19.25 18C20.112 18 20.9386 18.3424 21.5481 18.9519C22.1576 19.5614 22.5 20.388 22.5 21.25ZM21 21.25C20.9999 21.0201 20.9546 20.7925 20.8666 20.5802C20.7785 20.3678 20.6495 20.1749 20.4869 20.0124C20.3243 19.8499 20.1313 19.721 19.9189 19.6331C19.7065 19.5451 19.4789 19.4999 19.249 19.5C19.0191 19.5001 18.7915 19.5454 18.5792 19.6334C18.3668 19.7215 18.1739 19.8505 18.0114 20.0131C17.8489 20.1757 17.72 20.3687 17.6321 20.5811C17.5441 20.7935 17.4989 21.0211 17.499 21.251C17.4991 21.7153 17.6837 22.1605 18.0121 22.4886C18.3404 22.8168 18.7857 23.0011 19.25 23.001C19.7143 23.0009 20.1595 22.8163 20.4876 22.4879C20.8158 22.1596 21.0001 21.7143 21 21.25Z" fill="#848484"/>
</svg>
