<svg width="84" height="35" viewBox="0 0 84 35" fill="none" xmlns="http://www.w3.org/2000/svg">
<rect width="84" height="35" rx="4" fill="#E6EAFA" fill-opacity="0.2"/>
<path d="M25.004 23V11.8H29.612C30.604 11.8 31.452 11.96 32.156 12.28C32.8707 12.6 33.42 13.0587 33.804 13.656C34.188 14.2533 34.38 14.9627 34.38 15.784C34.38 16.6053 34.188 17.3147 33.804 17.912C33.42 18.5093 32.8707 18.968 32.156 19.288C31.452 19.608 30.604 19.768 29.612 19.768H26.156L27.084 18.792V23H25.004ZM27.084 19.016L26.156 18.008H29.516C30.4333 18.008 31.1213 17.816 31.58 17.432C32.0493 17.0373 32.284 16.488 32.284 15.784C32.284 15.0693 32.0493 14.52 31.58 14.136C31.1213 13.752 30.4333 13.56 29.516 13.56H26.156L27.084 12.536V19.016ZM40.0739 23.112C39.1992 23.112 38.4205 22.9253 37.7379 22.552C37.0552 22.168 36.5165 21.6453 36.1219 20.984C35.7272 20.3227 35.5299 19.5707 35.5299 18.728C35.5299 17.8747 35.7272 17.1227 36.1219 16.472C36.5165 15.8107 37.0552 15.2933 37.7379 14.92C38.4205 14.5467 39.1992 14.36 40.0739 14.36C40.9592 14.36 41.7432 14.5467 42.4259 14.92C43.1192 15.2933 43.6579 15.8053 44.0419 16.456C44.4365 17.1067 44.6339 17.864 44.6339 18.728C44.6339 19.5707 44.4365 20.3227 44.0419 20.984C43.6579 21.6453 43.1192 22.168 42.4259 22.552C41.7432 22.9253 40.9592 23.112 40.0739 23.112ZM40.0739 21.4C40.5645 21.4 41.0019 21.2933 41.3859 21.08C41.7699 20.8667 42.0685 20.5573 42.2819 20.152C42.5059 19.7467 42.6179 19.272 42.6179 18.728C42.6179 18.1733 42.5059 17.6987 42.2819 17.304C42.0685 16.8987 41.7699 16.5893 41.3859 16.376C41.0019 16.1627 40.5699 16.056 40.0899 16.056C39.5992 16.056 39.1619 16.1627 38.7779 16.376C38.4045 16.5893 38.1059 16.8987 37.8819 17.304C37.6579 17.6987 37.5459 18.1733 37.5459 18.728C37.5459 19.272 37.6579 19.7467 37.8819 20.152C38.1059 20.5573 38.4045 20.8667 38.7779 21.08C39.1619 21.2933 39.5939 21.4 40.0739 21.4ZM49.1864 23.112C48.4717 23.112 47.7837 23.0213 47.1224 22.84C46.4717 22.648 45.9544 22.4187 45.5704 22.152L46.3384 20.632C46.7224 20.8773 47.181 21.08 47.7144 21.24C48.2477 21.4 48.781 21.48 49.3144 21.48C49.9437 21.48 50.397 21.3947 50.6744 21.224C50.9624 21.0533 51.1064 20.824 51.1064 20.536C51.1064 20.3013 51.0104 20.1253 50.8184 20.008C50.6264 19.88 50.3757 19.784 50.0664 19.72C49.757 19.656 49.4104 19.5973 49.0264 19.544C48.653 19.4907 48.2744 19.4213 47.8904 19.336C47.517 19.24 47.1757 19.1067 46.8664 18.936C46.557 18.7547 46.3064 18.5147 46.1144 18.216C45.9224 17.9173 45.8264 17.5227 45.8264 17.032C45.8264 16.488 45.981 16.0187 46.2904 15.624C46.5997 15.2187 47.0317 14.9093 47.5864 14.696C48.1517 14.472 48.8184 14.36 49.5864 14.36C50.1624 14.36 50.7437 14.424 51.3304 14.552C51.917 14.68 52.4024 14.8613 52.7864 15.096L52.0184 16.616C51.613 16.3707 51.2024 16.2053 50.7864 16.12C50.381 16.024 49.9757 15.976 49.5704 15.976C48.9624 15.976 48.509 16.0667 48.2104 16.248C47.9224 16.4293 47.7784 16.6587 47.7784 16.936C47.7784 17.192 47.8744 17.384 48.0664 17.512C48.2584 17.64 48.509 17.7413 48.8184 17.816C49.1277 17.8907 49.469 17.9547 49.8424 18.008C50.2264 18.0507 50.605 18.12 50.9784 18.216C51.3517 18.312 51.693 18.4453 52.0024 18.616C52.3224 18.776 52.5784 19.0053 52.7704 19.304C52.9624 19.6027 53.0584 19.992 53.0584 20.472C53.0584 21.0053 52.8984 21.4693 52.5784 21.864C52.269 22.2587 51.8264 22.568 51.2504 22.792C50.6744 23.0053 49.9864 23.112 49.1864 23.112ZM57.9968 23.112C57.0581 23.112 56.3328 22.872 55.8207 22.392C55.3088 21.9013 55.0528 21.1813 55.0528 20.232V12.568H57.0528V20.184C57.0528 20.5893 57.1541 20.904 57.3568 21.128C57.5701 21.352 57.8634 21.464 58.2368 21.464C58.6848 21.464 59.0581 21.3467 59.3568 21.112L59.9168 22.536C59.6821 22.728 59.3941 22.872 59.0528 22.968C58.7114 23.064 58.3594 23.112 57.9968 23.112ZM53.6448 16.12V14.52H59.3408V16.12H53.6448Z" fill="#848484"/>
</svg>
