<svg width="17" height="16" viewBox="0 0 17 16" fill="none" xmlns="http://www.w3.org/2000/svg">
<g id="comment">
<path id="Vector" d="M3.99998 12C3.42534 12 2.87424 11.7717 2.46791 11.3654C2.06159 10.9591 1.83331 10.408 1.83331 9.83333V4.16667C1.83331 3.59203 2.06159 3.04093 2.46791 2.6346C2.87424 2.22827 3.42534 2 3.99998 2H13C13.2845 2 13.5663 2.05604 13.8291 2.16493C14.092 2.27381 14.3309 2.43341 14.532 2.6346C14.7332 2.8358 14.8928 3.07465 15.0017 3.33752C15.1106 3.60039 15.1666 3.88214 15.1666 4.16667V9.83333C15.1666 10.1179 15.1106 10.3996 15.0017 10.6625C14.8928 10.9254 14.7332 11.1642 14.532 11.3654C14.3309 11.5666 14.092 11.7262 13.8291 11.8351C13.5663 11.944 13.2845 12 13 12H9.17465L5.83331 14.5C5.7095 14.5927 5.56235 14.649 5.40832 14.6628C5.25429 14.6766 5.09946 14.6473 4.96115 14.5781C4.82285 14.5089 4.70652 14.4026 4.62519 14.2711C4.54386 14.1396 4.50074 13.988 4.50065 13.8333V12H3.99998ZM8.84265 11H13C13.3094 11 13.6061 10.8771 13.8249 10.6583C14.0437 10.4395 14.1666 10.1428 14.1666 9.83333V4.16667C14.1666 3.85725 14.0437 3.5605 13.8249 3.34171C13.6061 3.12292 13.3094 3 13 3H3.99998C3.69056 3 3.39381 3.12292 3.17502 3.34171C2.95623 3.5605 2.83331 3.85725 2.83331 4.16667V9.83333C2.83331 10.4773 3.35598 11 3.99998 11H5.49931V13.5L8.84265 11Z" fill="#626262"/>
</g>
</svg>
