<svg width="16" height="16" viewBox="0 0 16 16" fill="none" xmlns="http://www.w3.org/2000/svg">
<g id="heart">
<path id="Vector" d="M8.54667 3.71999L8 4.26799L7.45067 3.71866C6.77861 3.04669 5.86714 2.66921 4.91676 2.66927C3.96639 2.66934 3.05497 3.04693 2.383 3.71899C1.71103 4.39105 1.33356 5.30252 1.33362 6.25289C1.33368 7.20326 1.71127 8.11469 2.38333 8.78666L7.64667 14.05C7.74042 14.1436 7.8675 14.1962 8 14.1962C8.1325 14.1962 8.25958 14.1436 8.35333 14.05L13.6213 8.78532C14.2926 8.11321 14.6696 7.2021 14.6695 6.25219C14.6693 5.30227 14.2921 4.39126 13.6207 3.71932C13.2876 3.38602 12.8921 3.12161 12.4568 2.94122C12.0215 2.76082 11.5549 2.66797 11.0837 2.66797C10.6125 2.66797 10.1459 2.76082 9.71056 2.94122C9.27525 3.12161 8.87975 3.38602 8.54667 3.71932V3.71999ZM12.912 8.07999L8 12.99L3.09 8.07999C2.84802 7.84057 2.65574 7.55569 2.52422 7.24172C2.3927 6.92775 2.32453 6.59088 2.32362 6.25048C2.32272 5.91007 2.3891 5.57285 2.51895 5.25818C2.6488 4.94352 2.83955 4.65761 3.08026 4.41691C3.32096 4.17621 3.60686 3.98545 3.92152 3.8556C4.23619 3.72575 4.57342 3.65938 4.91382 3.66028C5.25422 3.66119 5.59109 3.72936 5.90506 3.86088C6.21903 3.9924 6.50391 4.18468 6.74333 4.42666L7.64867 5.33132C7.69577 5.37848 7.75182 5.41574 7.81354 5.44092C7.87525 5.4661 7.94137 5.47869 8.00802 5.47794C8.07467 5.4772 8.14049 5.46314 8.20162 5.43658C8.26276 5.41003 8.31796 5.37152 8.364 5.32332L9.25333 4.42666C9.74354 3.97037 10.3916 3.722 11.0612 3.73378C11.7308 3.74556 12.3697 4.01658 12.8436 4.48983C13.3174 4.96308 13.5893 5.60166 13.6019 6.27124C13.6145 6.94082 13.367 7.5892 12.9113 8.07999H12.912Z" fill="#626262"/>
</g>
</svg>
