<svg width="4" height="16" viewBox="0 0 4 16" fill="none" xmlns="http://www.w3.org/2000/svg">
<path id="Vector" d="M2.25 3.75C2.02019 3.75 1.79262 3.70474 1.5803 3.61679C1.36798 3.52884 1.17507 3.39994 1.01256 3.23744C0.85006 3.07493 0.721157 2.88202 0.633211 2.6697C0.545265 2.45738 0.5 2.22981 0.5 2C0.5 1.77019 0.545265 1.54262 0.633211 1.3303C0.721157 1.11798 0.85006 0.925066 1.01256 0.762563C1.17507 0.600061 1.36798 0.471156 1.5803 0.383211C1.79262 0.295265 2.02019 0.25 2.25 0.25C2.71413 0.25 3.15925 0.434375 3.48744 0.762563C3.81563 1.09075 4 1.53587 4 2C4 2.46413 3.81563 2.90925 3.48744 3.23744C3.15925 3.56563 2.71413 3.75 2.25 3.75ZM2.25 9.75C1.78587 9.75 1.34075 9.56563 1.01256 9.23744C0.684374 8.90925 0.5 8.46413 0.5 8C0.5 7.53587 0.684374 7.09075 1.01256 6.76256C1.34075 6.43437 1.78587 6.25 2.25 6.25C2.71413 6.25 3.15925 6.43437 3.48744 6.76256C3.81563 7.09075 4 7.53587 4 8C4 8.46413 3.81563 8.90925 3.48744 9.23744C3.15925 9.56563 2.71413 9.75 2.25 9.75ZM0.5 14C0.5 14.4641 0.684374 14.9092 1.01256 15.2374C1.34075 15.5656 1.78587 15.75 2.25 15.75C2.71413 15.75 3.15925 15.5656 3.48744 15.2374C3.81563 14.9092 4 14.4641 4 14C4 13.5359 3.81563 13.0908 3.48744 12.7626C3.15925 12.4344 2.71413 12.25 2.25 12.25C1.78587 12.25 1.34075 12.4344 1.01256 12.7626C0.684374 13.0908 0.5 13.5359 0.5 14Z" fill="#536471"/>
</svg>
