<svg width="16" height="16" viewBox="0 0 16 16" fill="none" xmlns="http://www.w3.org/2000/svg">
<g id="fluent:share-16-regular">
<path id="Vector" d="M10.307 2.1051C10.2331 2.04761 10.1445 2.01203 10.0514 2.0024C9.95826 1.99278 9.86429 2.0095 9.78019 2.05067C9.69609 2.09183 9.62523 2.15578 9.5757 2.23524C9.52616 2.3147 9.49994 2.40647 9.5 2.5001V4.4931C8.92553 4.51718 8.35865 4.63332 7.821 4.8371C6.98738 5.15221 6.26072 5.69816 5.726 6.4111C5.103 7.2371 4.645 8.3831 4.502 9.9551C4.49253 10.0576 4.5149 10.1604 4.56605 10.2497C4.6172 10.339 4.69465 10.4103 4.78782 10.4539C4.881 10.4976 4.98537 10.5114 5.08669 10.4935C5.18802 10.4757 5.28137 10.427 5.354 10.3541C6.542 9.1641 7.723 8.5781 8.596 8.2871C8.956 8.1671 9.264 8.0971 9.5 8.0571V10.0001C9.49997 10.0965 9.5278 10.1908 9.58014 10.2718C9.63248 10.3527 9.70709 10.4168 9.795 10.4563C9.88291 10.4958 9.98036 10.5091 10.0756 10.4945C10.1709 10.4799 10.2599 10.4381 10.332 10.3741L14.832 6.3741C14.887 6.32537 14.9305 6.26513 14.9596 6.19766C14.9886 6.13019 15.0024 6.05715 15 5.98373C14.9976 5.91032 14.9791 5.83833 14.9457 5.77289C14.9124 5.70745 14.865 5.65016 14.807 5.6051L10.307 2.1051ZM9.943 5.4971H9.946C10.0157 5.50437 10.0862 5.49694 10.1529 5.4753C10.2196 5.45367 10.281 5.4183 10.3332 5.37147C10.3854 5.32465 10.4272 5.26742 10.4559 5.20345C10.4847 5.13949 10.4997 5.07022 10.5 5.0001V3.5221L13.719 6.0261L10.5 8.8861V7.5001C10.5 7.3675 10.4473 7.24032 10.3536 7.14655C10.2598 7.05278 10.1326 7.0001 10 7.0001H9.955C9.8024 7.00713 9.65022 7.02148 9.499 7.0431C9.199 7.0871 8.779 7.1711 8.279 7.3381C7.3616 7.6497 6.50127 8.10908 5.732 8.6981C5.926 7.9821 6.208 7.4341 6.525 7.0131C6.94677 6.45001 7.52062 6.0191 8.179 5.7711C8.70296 5.57321 9.26005 5.47782 9.82 5.4901C9.865 5.4911 9.899 5.4931 9.92 5.4951L9.943 5.4971ZM4.5 3.0001C3.83696 3.0001 3.20107 3.2635 2.73223 3.73234C2.26339 4.20118 2 4.83706 2 5.5001V11.5001C2 12.1631 2.26339 12.799 2.73223 13.2679C3.20107 13.7367 3.83696 14.0001 4.5 14.0001H10.5C11.163 14.0001 11.7989 13.7367 12.2678 13.2679C12.7366 12.799 13 12.1631 13 11.5001V10.5001C13 10.3675 12.9473 10.2403 12.8536 10.1465C12.7598 10.0528 12.6326 10.0001 12.5 10.0001C12.3674 10.0001 12.2402 10.0528 12.1464 10.1465C12.0527 10.2403 12 10.3675 12 10.5001V11.5001C12 11.8979 11.842 12.2795 11.5607 12.5608C11.2794 12.8421 10.8978 13.0001 10.5 13.0001H4.5C4.10218 13.0001 3.72064 12.8421 3.43934 12.5608C3.15804 12.2795 3 11.8979 3 11.5001V5.5001C3 5.10228 3.15804 4.72075 3.43934 4.43944C3.72064 4.15814 4.10218 4.0001 4.5 4.0001H6.5C6.63261 4.0001 6.75979 3.94742 6.85355 3.85366C6.94732 3.75989 7 3.63271 7 3.5001C7 3.36749 6.94732 3.24032 6.85355 3.14655C6.75979 3.05278 6.63261 3.0001 6.5 3.0001H4.5Z" fill="#626262"/>
</g>
</svg>
